<mxfile host="app.diagrams.net" agent="Mozilla/5.0 (Windows NT 10.0; Win64; x64) AppleWebKit/537.36 (KHTML, like Gecko) Chrome/133.0.0.0 Safari/537.36" version="26.0.14">
  <diagram id="C5RBs43oDa-KdzZeNtuy" name="Page-1">
    <mxGraphModel dx="1050" dy="522" grid="1" gridSize="10" guides="1" tooltips="1" connect="1" arrows="1" fold="1" page="1" pageScale="1" pageWidth="827" pageHeight="1169" math="0" shadow="0">
      <root>
        <mxCell id="WIyWlLk6GJQsqaUBKTNV-0" />
        <mxCell id="WIyWlLk6GJQsqaUBKTNV-1" parent="WIyWlLk6GJQsqaUBKTNV-0" />
        <mxCell id="cVLe-s5Ejd2IVUnDp_NS-0" value="Inicio" style="ellipse;whiteSpace=wrap;html=1;" vertex="1" parent="WIyWlLk6GJQsqaUBKTNV-1">
          <mxGeometry x="354" width="120" height="50" as="geometry" />
        </mxCell>
        <mxCell id="cVLe-s5Ejd2IVUnDp_NS-2" value="&quot;Ingresar numero&quot;" style="shape=document;whiteSpace=wrap;html=1;boundedLbl=1;" vertex="1" parent="WIyWlLk6GJQsqaUBKTNV-1">
          <mxGeometry x="354" y="60" width="120" height="40" as="geometry" />
        </mxCell>
        <mxCell id="cVLe-s5Ejd2IVUnDp_NS-4" value="N" style="shape=parallelogram;perimeter=parallelogramPerimeter;whiteSpace=wrap;html=1;fixedSize=1;" vertex="1" parent="WIyWlLk6GJQsqaUBKTNV-1">
          <mxGeometry x="354" y="110" width="116" height="30" as="geometry" />
        </mxCell>
        <mxCell id="cVLe-s5Ejd2IVUnDp_NS-5" value="N!=0" style="rhombus;whiteSpace=wrap;html=1;" vertex="1" parent="WIyWlLk6GJQsqaUBKTNV-1">
          <mxGeometry x="350" y="150" width="120" height="50" as="geometry" />
        </mxCell>
        <mxCell id="cVLe-s5Ejd2IVUnDp_NS-7" value="" style="endArrow=classic;html=1;rounded=0;exitX=0;exitY=0.5;exitDx=0;exitDy=0;" edge="1" parent="WIyWlLk6GJQsqaUBKTNV-1" source="cVLe-s5Ejd2IVUnDp_NS-5">
          <mxGeometry width="50" height="50" relative="1" as="geometry">
            <mxPoint x="390" y="260" as="sourcePoint" />
            <mxPoint x="290" y="240" as="targetPoint" />
            <Array as="points">
              <mxPoint x="290" y="175" />
              <mxPoint x="290" y="220" />
            </Array>
          </mxGeometry>
        </mxCell>
        <mxCell id="cVLe-s5Ejd2IVUnDp_NS-8" value="" style="endArrow=classic;html=1;rounded=0;exitX=0;exitY=0.5;exitDx=0;exitDy=0;" edge="1" parent="WIyWlLk6GJQsqaUBKTNV-1">
          <mxGeometry width="50" height="50" relative="1" as="geometry">
            <mxPoint x="470" y="175" as="sourcePoint" />
            <mxPoint x="530" y="240" as="targetPoint" />
            <Array as="points">
              <mxPoint x="530" y="175" />
              <mxPoint x="530" y="230" />
            </Array>
          </mxGeometry>
        </mxCell>
        <mxCell id="cVLe-s5Ejd2IVUnDp_NS-9" value="Si&amp;nbsp; &amp;nbsp; &amp;nbsp; &amp;nbsp; &amp;nbsp; &amp;nbsp; &amp;nbsp; &amp;nbsp; &amp;nbsp; &amp;nbsp; &amp;nbsp; &amp;nbsp; &amp;nbsp; &amp;nbsp; &amp;nbsp; &amp;nbsp; &amp;nbsp; &amp;nbsp; &amp;nbsp; &amp;nbsp; No" style="text;html=1;align=center;verticalAlign=middle;whiteSpace=wrap;rounded=0;" vertex="1" parent="WIyWlLk6GJQsqaUBKTNV-1">
          <mxGeometry x="294" y="140" width="226" height="30" as="geometry" />
        </mxCell>
        <mxCell id="cVLe-s5Ejd2IVUnDp_NS-11" value="&quot;Es cero&quot;" style="shape=document;whiteSpace=wrap;html=1;boundedLbl=1;" vertex="1" parent="WIyWlLk6GJQsqaUBKTNV-1">
          <mxGeometry x="230" y="240" width="120" height="40" as="geometry" />
        </mxCell>
        <mxCell id="cVLe-s5Ejd2IVUnDp_NS-12" value="Es positivo" style="shape=document;whiteSpace=wrap;html=1;boundedLbl=1;" vertex="1" parent="WIyWlLk6GJQsqaUBKTNV-1">
          <mxGeometry x="380" y="340" width="120" height="40" as="geometry" />
        </mxCell>
        <mxCell id="cVLe-s5Ejd2IVUnDp_NS-13" value="Es positivo" style="shape=document;whiteSpace=wrap;html=1;boundedLbl=1;" vertex="1" parent="WIyWlLk6GJQsqaUBKTNV-1">
          <mxGeometry x="550" y="340" width="120" height="40" as="geometry" />
        </mxCell>
        <mxCell id="cVLe-s5Ejd2IVUnDp_NS-14" value="N&amp;gt;0" style="rhombus;whiteSpace=wrap;html=1;" vertex="1" parent="WIyWlLk6GJQsqaUBKTNV-1">
          <mxGeometry x="470" y="240" width="120" height="50" as="geometry" />
        </mxCell>
        <mxCell id="cVLe-s5Ejd2IVUnDp_NS-15" value="" style="endArrow=classic;html=1;rounded=0;exitX=0;exitY=0.5;exitDx=0;exitDy=0;" edge="1" parent="WIyWlLk6GJQsqaUBKTNV-1">
          <mxGeometry width="50" height="50" relative="1" as="geometry">
            <mxPoint x="470" y="270" as="sourcePoint" />
            <mxPoint x="410" y="335" as="targetPoint" />
            <Array as="points">
              <mxPoint x="410" y="270" />
              <mxPoint x="410" y="315" />
            </Array>
          </mxGeometry>
        </mxCell>
        <mxCell id="cVLe-s5Ejd2IVUnDp_NS-16" value="" style="endArrow=classic;html=1;rounded=0;exitX=0;exitY=0.5;exitDx=0;exitDy=0;" edge="1" parent="WIyWlLk6GJQsqaUBKTNV-1">
          <mxGeometry width="50" height="50" relative="1" as="geometry">
            <mxPoint x="590" y="270" as="sourcePoint" />
            <mxPoint x="650" y="335" as="targetPoint" />
            <Array as="points">
              <mxPoint x="650" y="270" />
              <mxPoint x="650" y="325" />
            </Array>
          </mxGeometry>
        </mxCell>
        <mxCell id="cVLe-s5Ejd2IVUnDp_NS-17" value="Si&amp;nbsp; &amp;nbsp; &amp;nbsp; &amp;nbsp; &amp;nbsp; &amp;nbsp; &amp;nbsp; &amp;nbsp; &amp;nbsp; &amp;nbsp; &amp;nbsp; &amp;nbsp; &amp;nbsp; &amp;nbsp; &amp;nbsp; &amp;nbsp; &amp;nbsp; &amp;nbsp; &amp;nbsp; &amp;nbsp; No" style="text;html=1;align=center;verticalAlign=middle;whiteSpace=wrap;rounded=0;" vertex="1" parent="WIyWlLk6GJQsqaUBKTNV-1">
          <mxGeometry x="417" y="240" width="226" height="30" as="geometry" />
        </mxCell>
        <mxCell id="cVLe-s5Ejd2IVUnDp_NS-19" value="" style="ellipse;whiteSpace=wrap;html=1;aspect=fixed;labelBackgroundColor=#000000;labelBorderColor=default;fontColor=default;textShadow=1;" vertex="1" parent="WIyWlLk6GJQsqaUBKTNV-1">
          <mxGeometry x="420" y="460" width="10" height="10" as="geometry" />
        </mxCell>
        <mxCell id="cVLe-s5Ejd2IVUnDp_NS-20" value="" style="endArrow=classic;html=1;rounded=0;entryX=0;entryY=0.5;entryDx=0;entryDy=0;exitX=0.44;exitY=0.99;exitDx=0;exitDy=0;exitPerimeter=0;" edge="1" parent="WIyWlLk6GJQsqaUBKTNV-1" source="cVLe-s5Ejd2IVUnDp_NS-11" target="cVLe-s5Ejd2IVUnDp_NS-19">
          <mxGeometry width="50" height="50" relative="1" as="geometry">
            <mxPoint x="290" y="280" as="sourcePoint" />
            <mxPoint x="340" y="230" as="targetPoint" />
            <Array as="points">
              <mxPoint x="280" y="460" />
            </Array>
          </mxGeometry>
        </mxCell>
        <mxCell id="cVLe-s5Ejd2IVUnDp_NS-21" value="" style="endArrow=classic;html=1;rounded=0;entryX=0;entryY=0.5;entryDx=0;entryDy=0;" edge="1" parent="WIyWlLk6GJQsqaUBKTNV-1" target="cVLe-s5Ejd2IVUnDp_NS-19">
          <mxGeometry width="50" height="50" relative="1" as="geometry">
            <mxPoint x="420" y="380" as="sourcePoint" />
            <mxPoint x="470" y="330" as="targetPoint" />
          </mxGeometry>
        </mxCell>
        <mxCell id="cVLe-s5Ejd2IVUnDp_NS-22" value="" style="endArrow=classic;html=1;rounded=0;entryX=0;entryY=0.5;entryDx=0;entryDy=0;" edge="1" parent="WIyWlLk6GJQsqaUBKTNV-1" target="cVLe-s5Ejd2IVUnDp_NS-19">
          <mxGeometry width="50" height="50" relative="1" as="geometry">
            <mxPoint x="585" y="380" as="sourcePoint" />
            <mxPoint x="635" y="330" as="targetPoint" />
            <Array as="points">
              <mxPoint x="590" y="470" />
            </Array>
          </mxGeometry>
        </mxCell>
        <mxCell id="cVLe-s5Ejd2IVUnDp_NS-23" value="Inicio" style="ellipse;whiteSpace=wrap;html=1;" vertex="1" parent="WIyWlLk6GJQsqaUBKTNV-1">
          <mxGeometry x="352" y="530" width="120" height="40" as="geometry" />
        </mxCell>
        <mxCell id="cVLe-s5Ejd2IVUnDp_NS-24" value="&quot;Ingresar numero&quot;" style="shape=document;whiteSpace=wrap;html=1;boundedLbl=1;" vertex="1" parent="WIyWlLk6GJQsqaUBKTNV-1">
          <mxGeometry x="350" y="585" width="120" height="35" as="geometry" />
        </mxCell>
        <mxCell id="cVLe-s5Ejd2IVUnDp_NS-25" value="N" style="shape=parallelogram;perimeter=parallelogramPerimeter;whiteSpace=wrap;html=1;fixedSize=1;" vertex="1" parent="WIyWlLk6GJQsqaUBKTNV-1">
          <mxGeometry x="356" y="640" width="116" height="30" as="geometry" />
        </mxCell>
        <mxCell id="cVLe-s5Ejd2IVUnDp_NS-26" value="num= 2, 4, 6, 8, o 0" style="rhombus;whiteSpace=wrap;html=1;" vertex="1" parent="WIyWlLk6GJQsqaUBKTNV-1">
          <mxGeometry x="360" y="690" width="110" height="80" as="geometry" />
        </mxCell>
        <mxCell id="cVLe-s5Ejd2IVUnDp_NS-28" value="" style="endArrow=classic;html=1;rounded=0;exitX=0;exitY=0.5;exitDx=0;exitDy=0;" edge="1" parent="WIyWlLk6GJQsqaUBKTNV-1">
          <mxGeometry width="50" height="50" relative="1" as="geometry">
            <mxPoint x="360" y="730" as="sourcePoint" />
            <mxPoint x="300" y="795" as="targetPoint" />
            <Array as="points">
              <mxPoint x="300" y="730" />
              <mxPoint x="300" y="775" />
            </Array>
          </mxGeometry>
        </mxCell>
        <mxCell id="cVLe-s5Ejd2IVUnDp_NS-29" value="" style="endArrow=classic;html=1;rounded=0;exitX=0;exitY=0.5;exitDx=0;exitDy=0;" edge="1" parent="WIyWlLk6GJQsqaUBKTNV-1">
          <mxGeometry width="50" height="50" relative="1" as="geometry">
            <mxPoint x="472" y="730" as="sourcePoint" />
            <mxPoint x="532" y="795" as="targetPoint" />
            <Array as="points">
              <mxPoint x="532" y="730" />
              <mxPoint x="532" y="785" />
            </Array>
          </mxGeometry>
        </mxCell>
        <mxCell id="cVLe-s5Ejd2IVUnDp_NS-30" value="Si&amp;nbsp; &amp;nbsp; &amp;nbsp; &amp;nbsp; &amp;nbsp; &amp;nbsp; &amp;nbsp; &amp;nbsp; &amp;nbsp; &amp;nbsp; &amp;nbsp; &amp;nbsp; &amp;nbsp; &amp;nbsp; &amp;nbsp; &amp;nbsp; &amp;nbsp; &amp;nbsp; &amp;nbsp; &amp;nbsp; No" style="text;html=1;align=center;verticalAlign=middle;whiteSpace=wrap;rounded=0;" vertex="1" parent="WIyWlLk6GJQsqaUBKTNV-1">
          <mxGeometry x="302" y="700" width="226" height="30" as="geometry" />
        </mxCell>
        <mxCell id="cVLe-s5Ejd2IVUnDp_NS-31" value="Es par" style="shape=document;whiteSpace=wrap;html=1;boundedLbl=1;" vertex="1" parent="WIyWlLk6GJQsqaUBKTNV-1">
          <mxGeometry x="240" y="800" width="120" height="40" as="geometry" />
        </mxCell>
        <mxCell id="cVLe-s5Ejd2IVUnDp_NS-33" value="Es impar" style="shape=document;whiteSpace=wrap;html=1;boundedLbl=1;" vertex="1" parent="WIyWlLk6GJQsqaUBKTNV-1">
          <mxGeometry x="474" y="800" width="120" height="40" as="geometry" />
        </mxCell>
        <mxCell id="cVLe-s5Ejd2IVUnDp_NS-34" value="Fin" style="ellipse;whiteSpace=wrap;html=1;" vertex="1" parent="WIyWlLk6GJQsqaUBKTNV-1">
          <mxGeometry x="386" y="1020" width="55" height="30" as="geometry" />
        </mxCell>
        <mxCell id="cVLe-s5Ejd2IVUnDp_NS-36" value="" style="endArrow=classic;html=1;rounded=0;" edge="1" parent="WIyWlLk6GJQsqaUBKTNV-1">
          <mxGeometry width="50" height="50" relative="1" as="geometry">
            <mxPoint x="300" y="840" as="sourcePoint" />
            <mxPoint x="390" y="960" as="targetPoint" />
            <Array as="points">
              <mxPoint x="300" y="960" />
            </Array>
          </mxGeometry>
        </mxCell>
        <mxCell id="cVLe-s5Ejd2IVUnDp_NS-37" value="" style="endArrow=classic;html=1;rounded=0;" edge="1" parent="WIyWlLk6GJQsqaUBKTNV-1" target="cVLe-s5Ejd2IVUnDp_NS-38">
          <mxGeometry width="50" height="50" relative="1" as="geometry">
            <mxPoint x="528" y="845" as="sourcePoint" />
            <mxPoint x="420" y="960" as="targetPoint" />
            <Array as="points">
              <mxPoint x="528" y="960" />
            </Array>
          </mxGeometry>
        </mxCell>
        <mxCell id="cVLe-s5Ejd2IVUnDp_NS-38" value="" style="ellipse;whiteSpace=wrap;html=1;aspect=fixed;" vertex="1" parent="WIyWlLk6GJQsqaUBKTNV-1">
          <mxGeometry x="392" y="940" width="30" height="30" as="geometry" />
        </mxCell>
        <mxCell id="cVLe-s5Ejd2IVUnDp_NS-39" value="" style="endArrow=classic;html=1;rounded=0;entryX=0.5;entryY=0;entryDx=0;entryDy=0;" edge="1" parent="WIyWlLk6GJQsqaUBKTNV-1" target="cVLe-s5Ejd2IVUnDp_NS-34">
          <mxGeometry width="50" height="50" relative="1" as="geometry">
            <mxPoint x="400" y="970" as="sourcePoint" />
            <mxPoint x="450" y="920" as="targetPoint" />
          </mxGeometry>
        </mxCell>
        <mxCell id="cVLe-s5Ejd2IVUnDp_NS-41" value="" style="endArrow=classic;html=1;rounded=0;" edge="1" parent="WIyWlLk6GJQsqaUBKTNV-1" target="cVLe-s5Ejd2IVUnDp_NS-24">
          <mxGeometry width="50" height="50" relative="1" as="geometry">
            <mxPoint x="414" y="570" as="sourcePoint" />
            <mxPoint x="464" y="520" as="targetPoint" />
          </mxGeometry>
        </mxCell>
        <mxCell id="cVLe-s5Ejd2IVUnDp_NS-42" value="" style="endArrow=classic;html=1;rounded=0;entryX=0.466;entryY=0.333;entryDx=0;entryDy=0;entryPerimeter=0;" edge="1" parent="WIyWlLk6GJQsqaUBKTNV-1" target="cVLe-s5Ejd2IVUnDp_NS-25">
          <mxGeometry width="50" height="50" relative="1" as="geometry">
            <mxPoint x="410" y="620" as="sourcePoint" />
            <mxPoint x="460" y="570" as="targetPoint" />
          </mxGeometry>
        </mxCell>
        <mxCell id="cVLe-s5Ejd2IVUnDp_NS-43" value="" style="endArrow=classic;html=1;rounded=0;entryX=0.5;entryY=0;entryDx=0;entryDy=0;" edge="1" parent="WIyWlLk6GJQsqaUBKTNV-1" target="cVLe-s5Ejd2IVUnDp_NS-26">
          <mxGeometry width="50" height="50" relative="1" as="geometry">
            <mxPoint x="410" y="670" as="sourcePoint" />
            <mxPoint x="460" y="620" as="targetPoint" />
          </mxGeometry>
        </mxCell>
        <mxCell id="cVLe-s5Ejd2IVUnDp_NS-44" value="Inicio" style="ellipse;whiteSpace=wrap;html=1;" vertex="1" parent="WIyWlLk6GJQsqaUBKTNV-1">
          <mxGeometry x="360" y="1180" width="70" height="40" as="geometry" />
        </mxCell>
        <mxCell id="cVLe-s5Ejd2IVUnDp_NS-45" value="Num1, Num2" style="rounded=0;whiteSpace=wrap;html=1;" vertex="1" parent="WIyWlLk6GJQsqaUBKTNV-1">
          <mxGeometry x="335" y="1240" width="120" height="60" as="geometry" />
        </mxCell>
        <mxCell id="cVLe-s5Ejd2IVUnDp_NS-46" value="" style="endArrow=classic;html=1;rounded=0;entryX=0.572;entryY=-0.02;entryDx=0;entryDy=0;entryPerimeter=0;" edge="1" parent="WIyWlLk6GJQsqaUBKTNV-1" target="cVLe-s5Ejd2IVUnDp_NS-45">
          <mxGeometry width="50" height="50" relative="1" as="geometry">
            <mxPoint x="400" y="1220" as="sourcePoint" />
            <mxPoint x="450" y="1170" as="targetPoint" />
          </mxGeometry>
        </mxCell>
        <mxCell id="cVLe-s5Ejd2IVUnDp_NS-47" value="Num1&amp;gt;Num2" style="rhombus;whiteSpace=wrap;html=1;" vertex="1" parent="WIyWlLk6GJQsqaUBKTNV-1">
          <mxGeometry x="330" y="1330" width="130" height="80" as="geometry" />
        </mxCell>
        <mxCell id="cVLe-s5Ejd2IVUnDp_NS-48" value="" style="endArrow=classic;html=1;rounded=0;entryX=0.5;entryY=0;entryDx=0;entryDy=0;" edge="1" parent="WIyWlLk6GJQsqaUBKTNV-1" target="cVLe-s5Ejd2IVUnDp_NS-47">
          <mxGeometry width="50" height="50" relative="1" as="geometry">
            <mxPoint x="392" y="1300" as="sourcePoint" />
            <mxPoint x="442" y="1250" as="targetPoint" />
          </mxGeometry>
        </mxCell>
        <mxCell id="cVLe-s5Ejd2IVUnDp_NS-49" value="" style="endArrow=classic;html=1;rounded=0;exitX=0.5;exitY=1;exitDx=0;exitDy=0;" edge="1" parent="WIyWlLk6GJQsqaUBKTNV-1" source="cVLe-s5Ejd2IVUnDp_NS-4">
          <mxGeometry width="50" height="50" relative="1" as="geometry">
            <mxPoint x="430" y="210" as="sourcePoint" />
            <mxPoint x="410" y="150" as="targetPoint" />
          </mxGeometry>
        </mxCell>
        <mxCell id="cVLe-s5Ejd2IVUnDp_NS-50" value="" style="endArrow=classic;html=1;rounded=0;exitX=0.5;exitY=1;exitDx=0;exitDy=0;" edge="1" parent="WIyWlLk6GJQsqaUBKTNV-1" source="cVLe-s5Ejd2IVUnDp_NS-0" target="cVLe-s5Ejd2IVUnDp_NS-2">
          <mxGeometry width="50" height="50" relative="1" as="geometry">
            <mxPoint x="430" y="210" as="sourcePoint" />
            <mxPoint x="480" y="160" as="targetPoint" />
          </mxGeometry>
        </mxCell>
        <mxCell id="cVLe-s5Ejd2IVUnDp_NS-51" value="" style="endArrow=classic;html=1;rounded=0;exitX=0.547;exitY=0.79;exitDx=0;exitDy=0;exitPerimeter=0;entryX=0.569;entryY=0.333;entryDx=0;entryDy=0;entryPerimeter=0;" edge="1" parent="WIyWlLk6GJQsqaUBKTNV-1" source="cVLe-s5Ejd2IVUnDp_NS-2" target="cVLe-s5Ejd2IVUnDp_NS-4">
          <mxGeometry width="50" height="50" relative="1" as="geometry">
            <mxPoint x="430" y="210" as="sourcePoint" />
            <mxPoint x="480" y="160" as="targetPoint" />
          </mxGeometry>
        </mxCell>
        <mxCell id="cVLe-s5Ejd2IVUnDp_NS-52" value="" style="endArrow=classic;html=1;rounded=0;" edge="1" parent="WIyWlLk6GJQsqaUBKTNV-1">
          <mxGeometry width="50" height="50" relative="1" as="geometry">
            <mxPoint x="455" y="1370" as="sourcePoint" />
            <mxPoint x="530" y="1440" as="targetPoint" />
            <Array as="points">
              <mxPoint x="530" y="1370" />
            </Array>
          </mxGeometry>
        </mxCell>
        <mxCell id="cVLe-s5Ejd2IVUnDp_NS-53" value="" style="endArrow=classic;html=1;rounded=0;" edge="1" parent="WIyWlLk6GJQsqaUBKTNV-1">
          <mxGeometry width="50" height="50" relative="1" as="geometry">
            <mxPoint x="330" y="1370" as="sourcePoint" />
            <mxPoint x="260" y="1430" as="targetPoint" />
            <Array as="points">
              <mxPoint x="260" y="1370" />
            </Array>
          </mxGeometry>
        </mxCell>
        <mxCell id="cVLe-s5Ejd2IVUnDp_NS-54" value="Si&amp;nbsp; &amp;nbsp; &amp;nbsp; &amp;nbsp; &amp;nbsp; &amp;nbsp; &amp;nbsp; &amp;nbsp; &amp;nbsp; &amp;nbsp; &amp;nbsp; &amp;nbsp; &amp;nbsp; &amp;nbsp; &amp;nbsp; &amp;nbsp; &amp;nbsp; &amp;nbsp; &amp;nbsp; &amp;nbsp; No" style="text;html=1;align=center;verticalAlign=middle;whiteSpace=wrap;rounded=0;" vertex="1" parent="WIyWlLk6GJQsqaUBKTNV-1">
          <mxGeometry x="282" y="1340" width="226" height="30" as="geometry" />
        </mxCell>
        <mxCell id="cVLe-s5Ejd2IVUnDp_NS-55" value="El Num1 es mayor" style="shape=document;whiteSpace=wrap;html=1;boundedLbl=1;" vertex="1" parent="WIyWlLk6GJQsqaUBKTNV-1">
          <mxGeometry x="200" y="1430" width="120" height="50" as="geometry" />
        </mxCell>
        <mxCell id="cVLe-s5Ejd2IVUnDp_NS-56" value="El Num2 es mayor" style="shape=document;whiteSpace=wrap;html=1;boundedLbl=1;" vertex="1" parent="WIyWlLk6GJQsqaUBKTNV-1">
          <mxGeometry x="474" y="1440" width="120" height="50" as="geometry" />
        </mxCell>
        <mxCell id="cVLe-s5Ejd2IVUnDp_NS-57" value="" style="endArrow=classic;html=1;rounded=0;" edge="1" parent="WIyWlLk6GJQsqaUBKTNV-1">
          <mxGeometry width="50" height="50" relative="1" as="geometry">
            <mxPoint x="265" y="1470" as="sourcePoint" />
            <mxPoint x="390" y="1600" as="targetPoint" />
            <Array as="points">
              <mxPoint x="260" y="1600" />
            </Array>
          </mxGeometry>
        </mxCell>
        <mxCell id="cVLe-s5Ejd2IVUnDp_NS-58" value="" style="endArrow=classic;html=1;rounded=0;" edge="1" parent="WIyWlLk6GJQsqaUBKTNV-1">
          <mxGeometry width="50" height="50" relative="1" as="geometry">
            <mxPoint x="540" y="1480" as="sourcePoint" />
            <mxPoint x="400" y="1600" as="targetPoint" />
            <Array as="points">
              <mxPoint x="540" y="1600" />
            </Array>
          </mxGeometry>
        </mxCell>
        <mxCell id="cVLe-s5Ejd2IVUnDp_NS-59" value="" style="endArrow=classic;html=1;rounded=0;" edge="1" parent="WIyWlLk6GJQsqaUBKTNV-1">
          <mxGeometry width="50" height="50" relative="1" as="geometry">
            <mxPoint x="392" y="1620" as="sourcePoint" />
            <mxPoint x="390" y="1660" as="targetPoint" />
            <Array as="points">
              <mxPoint x="390" y="1640" />
            </Array>
          </mxGeometry>
        </mxCell>
        <mxCell id="cVLe-s5Ejd2IVUnDp_NS-60" value="" style="ellipse;whiteSpace=wrap;html=1;aspect=fixed;" vertex="1" parent="WIyWlLk6GJQsqaUBKTNV-1">
          <mxGeometry x="386" y="1600" width="20" height="20" as="geometry" />
        </mxCell>
        <mxCell id="cVLe-s5Ejd2IVUnDp_NS-61" value="Fin" style="ellipse;whiteSpace=wrap;html=1;" vertex="1" parent="WIyWlLk6GJQsqaUBKTNV-1">
          <mxGeometry x="362" y="1660" width="55" height="30" as="geometry" />
        </mxCell>
        <mxCell id="cVLe-s5Ejd2IVUnDp_NS-63" value="Inicio" style="ellipse;whiteSpace=wrap;html=1;" vertex="1" parent="WIyWlLk6GJQsqaUBKTNV-1">
          <mxGeometry x="352" y="1780" width="78" height="50" as="geometry" />
        </mxCell>
        <mxCell id="cVLe-s5Ejd2IVUnDp_NS-64" value="&quot;Insertar Año&quot;" style="shape=document;whiteSpace=wrap;html=1;boundedLbl=1;" vertex="1" parent="WIyWlLk6GJQsqaUBKTNV-1">
          <mxGeometry x="335" y="1860" width="120" height="40" as="geometry" />
        </mxCell>
        <mxCell id="cVLe-s5Ejd2IVUnDp_NS-66" value="El año tiene mas de un dia?" style="rhombus;whiteSpace=wrap;html=1;" vertex="1" parent="WIyWlLk6GJQsqaUBKTNV-1">
          <mxGeometry x="335" y="1960" width="120" height="80" as="geometry" />
        </mxCell>
        <mxCell id="cVLe-s5Ejd2IVUnDp_NS-67" value="Año" style="rounded=1;whiteSpace=wrap;html=1;" vertex="1" parent="WIyWlLk6GJQsqaUBKTNV-1">
          <mxGeometry x="366" y="1910" width="60" height="30" as="geometry" />
        </mxCell>
        <mxCell id="cVLe-s5Ejd2IVUnDp_NS-68" value="" style="endArrow=classic;html=1;rounded=0;entryX=0.5;entryY=0;entryDx=0;entryDy=0;" edge="1" parent="WIyWlLk6GJQsqaUBKTNV-1" target="cVLe-s5Ejd2IVUnDp_NS-64">
          <mxGeometry width="50" height="50" relative="1" as="geometry">
            <mxPoint x="392" y="1830" as="sourcePoint" />
            <mxPoint x="442" y="1780" as="targetPoint" />
          </mxGeometry>
        </mxCell>
        <mxCell id="cVLe-s5Ejd2IVUnDp_NS-69" value="" style="endArrow=classic;html=1;rounded=0;entryX=0.5;entryY=0;entryDx=0;entryDy=0;" edge="1" parent="WIyWlLk6GJQsqaUBKTNV-1" target="cVLe-s5Ejd2IVUnDp_NS-67">
          <mxGeometry width="50" height="50" relative="1" as="geometry">
            <mxPoint x="400" y="1890" as="sourcePoint" />
            <mxPoint x="450" y="1840" as="targetPoint" />
          </mxGeometry>
        </mxCell>
        <mxCell id="cVLe-s5Ejd2IVUnDp_NS-70" value="" style="endArrow=classic;html=1;rounded=0;" edge="1" parent="WIyWlLk6GJQsqaUBKTNV-1" target="cVLe-s5Ejd2IVUnDp_NS-66">
          <mxGeometry width="50" height="50" relative="1" as="geometry">
            <mxPoint x="392" y="1940" as="sourcePoint" />
            <mxPoint x="442" y="1890" as="targetPoint" />
          </mxGeometry>
        </mxCell>
        <mxCell id="cVLe-s5Ejd2IVUnDp_NS-71" value="" style="endArrow=classic;html=1;rounded=0;" edge="1" parent="WIyWlLk6GJQsqaUBKTNV-1">
          <mxGeometry width="50" height="50" relative="1" as="geometry">
            <mxPoint x="335" y="2000" as="sourcePoint" />
            <mxPoint x="390" y="1840" as="targetPoint" />
            <Array as="points">
              <mxPoint x="240" y="2000" />
              <mxPoint x="230" y="1840" />
            </Array>
          </mxGeometry>
        </mxCell>
        <mxCell id="cVLe-s5Ejd2IVUnDp_NS-72" value="" style="endArrow=classic;html=1;rounded=0;" edge="1" parent="WIyWlLk6GJQsqaUBKTNV-1">
          <mxGeometry width="50" height="50" relative="1" as="geometry">
            <mxPoint x="455" y="2000" as="sourcePoint" />
            <mxPoint x="400" y="2080" as="targetPoint" />
            <Array as="points">
              <mxPoint x="480" y="2000" />
              <mxPoint x="480" y="2060" />
              <mxPoint x="400" y="2060" />
            </Array>
          </mxGeometry>
        </mxCell>
        <mxCell id="cVLe-s5Ejd2IVUnDp_NS-73" value="&quot;Año bisiesto&quot;" style="shape=document;whiteSpace=wrap;html=1;boundedLbl=1;" vertex="1" parent="WIyWlLk6GJQsqaUBKTNV-1">
          <mxGeometry x="340" y="2080" width="120" height="40" as="geometry" />
        </mxCell>
        <mxCell id="cVLe-s5Ejd2IVUnDp_NS-74" value="Fin" style="ellipse;whiteSpace=wrap;html=1;" vertex="1" parent="WIyWlLk6GJQsqaUBKTNV-1">
          <mxGeometry x="368.5" y="2170" width="55" height="30" as="geometry" />
        </mxCell>
        <mxCell id="cVLe-s5Ejd2IVUnDp_NS-75" value="" style="endArrow=classic;html=1;rounded=0;entryX=0.5;entryY=0;entryDx=0;entryDy=0;" edge="1" parent="WIyWlLk6GJQsqaUBKTNV-1" target="cVLe-s5Ejd2IVUnDp_NS-74">
          <mxGeometry width="50" height="50" relative="1" as="geometry">
            <mxPoint x="392" y="2125" as="sourcePoint" />
            <mxPoint x="442" y="2075" as="targetPoint" />
          </mxGeometry>
        </mxCell>
      </root>
    </mxGraphModel>
  </diagram>
</mxfile>
